<mxfile host="app.diagrams.net" agent="Mozilla/5.0 (Windows NT 10.0; Win64; x64) AppleWebKit/537.36 (KHTML, like Gecko) Chrome/133.0.0.0 Safari/537.36" version="26.0.14">
  <diagram name="Página-1" id="H2vNpuKMQOMl1gOYE3t8">
    <mxGraphModel>
      <root>
        <mxCell id="0" />
        <mxCell id="1" parent="0" />
        <mxCell id="2" value="Campos de Login" style="whiteSpace=wrap;strokeWidth=2;verticalAlign=top;" vertex="1" parent="1">
          <mxGeometry x="8" y="8" width="285" height="129" as="geometry" />
        </mxCell>
        <mxCell id="3" value="fa:fa-envelope Email" style="rounded=1;arcSize=20;strokeWidth=2" vertex="1" parent="2">
          <mxGeometry x="43" y="46" width="70" height="54" as="geometry" />
        </mxCell>
        <mxCell id="4" value="fa:fa-lock Password" style="rounded=1;arcSize=20;strokeWidth=2" vertex="1" parent="2">
          <mxGeometry x="163" y="46" width="95" height="54" as="geometry" />
        </mxCell>
        <mxCell id="5" value="Tela de Login" style="whiteSpace=wrap;strokeWidth=2;" vertex="1" parent="1">
          <mxGeometry x="343" y="147" width="107" height="129" as="geometry" />
        </mxCell>
        <mxCell id="6" value="Início" style="whiteSpace=wrap;strokeWidth=2;" vertex="1" parent="1">
          <mxGeometry x="101" y="187" width="99" height="54" as="geometry" />
        </mxCell>
        <mxCell id="7" value="fa:fa-mobile App" style="rounded=1;arcSize=20;strokeWidth=2" vertex="1" parent="1">
          <mxGeometry x="368" y="187" width="57" height="54" as="geometry" />
        </mxCell>
        <mxCell id="8" value="Campos preenchidos?" style="rhombus;strokeWidth=2;whiteSpace=wrap;" vertex="1" parent="1">
          <mxGeometry x="532" y="111" width="206" height="206" as="geometry" />
        </mxCell>
        <mxCell id="9" value="Validar Dados" style="rounded=1;arcSize=20;strokeWidth=2" vertex="1" parent="1">
          <mxGeometry x="818" y="133" width="126" height="54" as="geometry" />
        </mxCell>
        <mxCell id="10" value="Login Válido?" style="rhombus;strokeWidth=2;whiteSpace=wrap;" vertex="1" parent="1">
          <mxGeometry x="994" y="86" width="147" height="147" as="geometry" />
        </mxCell>
        <mxCell id="11" value="Redirecionar para Dashboard" style="whiteSpace=wrap;strokeWidth=2;" vertex="1" parent="1">
          <mxGeometry x="1223" y="99" width="260" height="78" as="geometry" />
        </mxCell>
        <mxCell id="12" value="Sucesso" style="rounded=1;arcSize=20;strokeWidth=2" vertex="1" parent="1">
          <mxGeometry x="1533" y="111" width="85" height="54" as="geometry" />
        </mxCell>
        <mxCell id="13" value="Encerrar" style="whiteSpace=wrap;strokeWidth=2;" vertex="1" parent="1">
          <mxGeometry x="1668" y="111" width="121" height="54" as="geometry" />
        </mxCell>
        <mxCell id="14" value="Exibir Mensagem de Erro" style="whiteSpace=wrap;strokeWidth=2;" vertex="1" parent="1">
          <mxGeometry x="1235" y="245" width="236" height="54" as="geometry" />
        </mxCell>
        <mxCell id="15" value="" style="curved=1;startArrow=none;endArrow=block;exitX=1;exitY=0.5;entryX=-0.01;entryY=0.5;" edge="1" parent="1" source="6" target="7">
          <mxGeometry relative="1" as="geometry">
            <Array as="points" />
          </mxGeometry>
        </mxCell>
        <mxCell id="16" value="" style="curved=1;startArrow=none;endArrow=block;exitX=1;exitY=0.34;entryX=0;entryY=0.45;" edge="1" parent="1" source="7" target="8">
          <mxGeometry relative="1" as="geometry">
            <Array as="points">
              <mxPoint x="450" y="198" />
              <mxPoint x="491" y="198" />
            </Array>
          </mxGeometry>
        </mxCell>
        <mxCell id="17" value="Sim" style="curved=1;startArrow=none;endArrow=block;exitX=1;exitY=0.31;entryX=0;entryY=0.49;" edge="1" parent="1" source="8" target="9">
          <mxGeometry relative="1" as="geometry">
            <Array as="points">
              <mxPoint x="778" y="160" />
            </Array>
          </mxGeometry>
        </mxCell>
        <mxCell id="18" value="" style="curved=1;startArrow=none;endArrow=block;exitX=1;exitY=0.49;entryX=0;entryY=0.5;" edge="1" parent="1" source="9" target="10">
          <mxGeometry relative="1" as="geometry">
            <Array as="points" />
          </mxGeometry>
        </mxCell>
        <mxCell id="19" value="Sim" style="curved=1;startArrow=none;endArrow=block;exitX=1;exitY=0.41;entryX=0;entryY=0.5;" edge="1" parent="1" source="10" target="11">
          <mxGeometry relative="1" as="geometry">
            <Array as="points">
              <mxPoint x="1182" y="138" />
            </Array>
          </mxGeometry>
        </mxCell>
        <mxCell id="20" value="" style="curved=1;startArrow=none;endArrow=block;exitX=1;exitY=0.5;entryX=0;entryY=0.5;" edge="1" parent="1" source="11" target="12">
          <mxGeometry relative="1" as="geometry">
            <Array as="points" />
          </mxGeometry>
        </mxCell>
        <mxCell id="21" value="" style="curved=1;startArrow=none;endArrow=block;exitX=0.99;exitY=0.5;entryX=0;entryY=0.5;" edge="1" parent="1" source="12" target="13">
          <mxGeometry relative="1" as="geometry">
            <Array as="points" />
          </mxGeometry>
        </mxCell>
        <mxCell id="22" value="Não" style="curved=1;startArrow=none;endArrow=block;exitX=1;exitY=0.76;entryX=0.14;entryY=0;" edge="1" parent="1" source="10" target="14">
          <mxGeometry relative="1" as="geometry">
            <Array as="points">
              <mxPoint x="1182" y="218" />
            </Array>
          </mxGeometry>
        </mxCell>
        <mxCell id="23" value="" style="curved=1;startArrow=none;endArrow=block;exitX=0;exitY=0.7;entryX=1;entryY=0.76;" edge="1" parent="1" source="14" target="8">
          <mxGeometry relative="1" as="geometry">
            <Array as="points">
              <mxPoint x="1182" y="288" />
              <mxPoint x="778" y="288" />
            </Array>
          </mxGeometry>
        </mxCell>
        <mxCell id="24" value="Não" style="curved=1;startArrow=none;endArrow=block;exitX=0;exitY=0.57;entryX=1;entryY=0.71;" edge="1" parent="1" source="8" target="7">
          <mxGeometry relative="1" as="geometry">
            <Array as="points">
              <mxPoint x="491" y="235" />
              <mxPoint x="450" y="235" />
            </Array>
          </mxGeometry>
        </mxCell>
      </root>
    </mxGraphModel>
  </diagram>
</mxfile>
